<?xml version="1.0" standalone="no"?>
<!DOCTYPE svg PUBLIC "-//W3C//DTD SVG 20010904//EN"
 "http://www.w3.org/TR/2001/REC-SVG-20010904/DTD/svg10.dtd">
<svg version="1.0" xmlns="http://www.w3.org/2000/svg"
 width="6138.000000pt" height="6138.000000pt" viewBox="0 0 6138.000000 6138.000000"
 preserveAspectRatio="xMidYMid meet">
<metadata>
Created by potrace 1.11, written by Peter Selinger 2001-2013
</metadata>
<g transform="translate(0.000000,6138.000000) scale(0.100000,-0.100000)"
fill="#000000" stroke="none">
<path d="M3509 50936 c-2 -2 -47 -6 -99 -10 -52 -3 -111 -8 -130 -11 -19 -3
-57 -7 -85 -11 -90 -10 -347 -64 -477 -100 -306 -84 -700 -253 -918 -394 -8
-5 -31 -19 -51 -29 -56 -31 -316 -220 -415 -301 -127 -105 -374 -355 -486
-490 -233 -284 -400 -560 -564 -935 -26 -60 -102 -272 -123 -345 -12 -41 -29
-97 -37 -125 -15 -53 -36 -144 -58 -260 -15 -73 -17 -89 -36 -240 -6 -49 -14
-103 -18 -120 -3 -16 -8 -8379 -9 -18582 l-3 -18553 30690 0 30690 0 -3 18557
c-1 10207 -5 18567 -8 18578 -4 11 -10 51 -14 90 -4 38 -8 72 -10 75 -1 3 -6
30 -9 61 -4 31 -9 67 -12 80 -3 13 -7 35 -10 49 -4 23 -9 47 -18 95 -37 183
-139 506 -206 652 -11 24 -20 45 -20 48 0 7 -145 301 -163 330 -7 10 -30 49
-51 85 -103 171 -212 325 -340 480 -121 147 -364 384 -536 523 -133 109 -322
235 -494 331 -113 63 -319 166 -331 166 -3 0 -28 11 -57 24 -74 33 -262 101
-350 127 -98 28 -288 76 -324 82 -16 3 -67 12 -114 21 -47 9 -103 18 -125 20
-22 3 -67 8 -100 11 -33 4 -71 9 -85 13 -25 7 -54483 15 -54491 8z"/>
</g>
</svg>
